HIERARCHY
ROOT Hip
{
  OFFSET 0.0 0.0 0.0
  CHANNELS 6 Xposition Yposition Zposition Xrotation Yrotation Zrotation
  JOINT LowerSpine
  {
    OFFSET 0.0 0.061367 -0.03653
    CHANNELS 3 Xrotation Yrotation Zrotation
    JOINT MiddleSpine
    {
      OFFSET 0.0 0.056002 0.002633
      CHANNELS 3 Xrotation Yrotation Zrotation
      JOINT Chest
      {
        OFFSET 0.0 0.069296 -0.013882
        CHANNELS 3 Xrotation Yrotation Zrotation
        JOINT Neck
        {
          OFFSET 0.0 0.156156 -0.002923
          CHANNELS 3 Xrotation Yrotation Zrotation
          JOINT Head
          {
            OFFSET 0.0 0.088183 0.023986
            CHANNELS 3 Xrotation Yrotation Zrotation
            End Site
            {
              OFFSET 1e-06 0.123215 0.003678
            }
          }
        }
        JOINT LClavicle
        {
          OFFSET 0.014189 0.150698 0.046467
          CHANNELS 3 Xrotation Yrotation Zrotation
          JOINT LShoulder
          {
            OFFSET 0.082893 0.021616 -0.034976
            CHANNELS 3 Xrotation Yrotation Zrotation
            JOINT LForearm
            {
              OFFSET 0.195645 -0.000695 -0.001695
              CHANNELS 3 Xrotation Yrotation Zrotation
              JOINT LHand
              {
                OFFSET 0.163209 0.000474 -0.000977
                CHANNELS 3 Xrotation Yrotation Zrotation
                End Site
                {
                  OFFSET 0.0 0.006864 0.0
                }
              }
            }
          }
        }
        JOINT RClavicle
        {
          OFFSET -0.014189 0.150698 0.046467
          CHANNELS 3 Xrotation Yrotation Zrotation
          JOINT RShoulder
          {
            OFFSET -0.082908 0.021619 -0.034982
            CHANNELS 3 Xrotation Yrotation Zrotation
            JOINT RForearm
            {
              OFFSET -0.195645 -0.000695 -0.001695
              CHANNELS 3 Xrotation Yrotation Zrotation
              JOINT RHand
              {
                OFFSET -0.163209 0.000474 -0.000977
                CHANNELS 3 Xrotation Yrotation Zrotation
                End Site
                {
                  OFFSET 0.0 0.006864 0.0
                }
              }
            }
          }
        }
      }
    }
  }
  JOINT RThigh
  {
    OFFSET -0.072558 0.02774 -0.005953
    CHANNELS 3 Xrotation Yrotation Zrotation
    JOINT RShin
    {
      OFFSET -0.005253 -0.285537 0.0
      CHANNELS 3 Xrotation Yrotation Zrotation
      JOINT RFoot
      {
        OFFSET 0.0 -0.28038 0.0
        CHANNELS 3 Xrotation Yrotation Zrotation
        JOINT RToe
        {
          OFFSET 0.0 -0.030816 0.064441
          CHANNELS 3 Xrotation Yrotation Zrotation
          End Site
          {
            OFFSET 0.0 0.0 0.043231
          }
        }
      }
    }
  }
  JOINT LThigh
  {
    OFFSET 0.072557 0.027741 -0.005953
    CHANNELS 3 Xrotation Yrotation Zrotation
    JOINT LShin
    {
      OFFSET 0.005253 -0.285539 0.0
      CHANNELS 3 Xrotation Yrotation Zrotation
      JOINT LFoot
      {
        OFFSET 0.0 -0.28038 0.0
        CHANNELS 3 Xrotation Yrotation Zrotation
        JOINT LToe
        {
          OFFSET 0.0 -0.030816 0.064441
          CHANNELS 3 Xrotation Yrotation Zrotation
          End Site
          {
            OFFSET 0.0 0.0 0.043231
          }
        }
      }
    }
  }
}
MOTION
Frames: 10
Frame Time: 0.03333333333333333
0.204706 0.530671 1.557789 14.793947 -32.285202 1.654253 1.495888 -0.302305 -0.461843 -1.354699 -1.042821 1.136697 -9.84511 -9.632822 2.599294 0.546597 0.176109 -0.121337 0.017943 -0.032595 -0.033786 -0.166704 -0.665871 -10.802356 2.457627 -36.298954 -53.838787 4.28418 -44.905106 2.304383 0.042398 0.094419 -0.058689 -1.01605 0.237804 9.453622 20.99744 27.276697 61.968311 8.955988 43.760571 -0.970503 -0.000596 -0.159422 -0.017949 -34.769737 -15.301332 6.127745 26.429838 -7.281957 2.921337 -1.676134 1.201657 0.055106 0.030129 0.243705 0.051804 -41.881577 -6.040024 6.933693 55.844177 1.736876 -4.040765 -2.825313 0.482826 0.563313 -0.144844 0.01328 0.02467 
0.195156 0.524085 1.55424 14.784132 -32.347725 1.309048 1.514991 -0.253784 -0.380939 -1.326342 -0.935118 1.124432 -10.395066 -8.782674 2.26604 0.428353 0.192584 -0.05127 0.027751 -0.029866 -0.034373 -0.286921 -0.679639 -10.771041 4.3832 -36.073071 -53.766228 6.689199 -41.172657 2.211591 0.043642 0.105146 -0.058424 -0.951091 0.378346 9.278936 19.958601 30.207144 60.350357 9.720138 45.814022 -1.299441 -0.002568 -0.181986 -0.019679 -34.603111 -14.730582 5.563593 26.961969 -7.01708 3.235732 -2.015313 1.125446 0.072177 0.008443 0.235573 0.060719 -47.331703 -6.557018 7.67351 60.390244 1.572438 -3.845505 -2.602562 0.497699 0.5342 -0.08252 0.010043 0.019014 
0.189797 0.519831 1.553376 14.668938 -32.561615 0.990167 1.500421 -0.217544 -0.267368 -1.242273 -0.757266 1.032983 -11.30632 -7.783447 1.84612 0.418495 0.218173 -0.01417 0.041397 -0.028717 -0.036352 -0.518547 -0.821103 -10.572734 7.166786 -35.931133 -52.838291 9.192551 -39.24493 1.948711 0.043123 0.114661 -0.053357 -0.961708 0.72404 9.181398 19.136673 32.190517 57.899666 10.501718 49.547169 -1.428758 0.010166 -0.189163 -0.017153 -37.255249 -13.459805 4.929471 28.881613 -6.301546 3.551828 -2.385725 1.06366 0.106791 -0.029213 0.224619 0.0608 -53.851345 -6.586442 7.325562 63.362633 1.342925 -3.567493 -2.362478 0.450477 0.468087 -0.037017 0.001482 0.017666 
0.186806 0.515878 1.563759 12.966506 -35.682289 1.064996 1.608324 -0.161366 -0.144265 -1.249125 -0.518137 0.994195 -12.048479 -5.958341 1.722685 0.597188 0.268758 0.046059 0.049601 -0.04161 -0.033236 -0.763935 -1.14855 -10.170026 8.813875 -34.120598 -54.293663 9.491075 -37.923809 1.301659 0.043112 0.117458 -0.049049 -1.033471 1.160386 9.019667 17.01108 31.848827 55.92757 10.1056 51.01247 -0.982917 0.025817 -0.189367 -0.013359 -35.130001 -10.983631 4.543279 28.547817 -5.239721 3.634597 -2.918447 1.014593 0.114629 -0.075617 0.239945 0.065625 -54.912376 -5.641742 5.605342 62.009842 0.873907 -2.968786 -2.332666 0.354265 0.451345 -0.017826 -0.019629 0.008691 
0.186143 0.513338 1.582079 11.271824 -41.52552 2.157441 1.713594 -0.110279 -0.050259 -1.402766 -0.296509 1.035995 -12.3117 -4.199028 1.917026 0.821755 0.326728 0.089002 0.050821 -0.070872 -0.027289 -0.900203 -1.562973 -9.717302 10.082011 -32.049557 -56.294624 9.082046 -38.501522 0.739583 0.045126 0.123548 -0.048797 -1.083676 1.493758 8.601464 14.89415 29.839231 54.774246 9.304129 52.430363 -0.368467 0.034835 -0.188684 -0.010187 -30.190519 -8.304094 4.067982 26.620577 -4.201625 3.678479 -3.342209 1.017696 0.117419 -0.11452 0.257874 0.06754 -53.000095 -4.45623 3.388205 56.919304 0.079771 -2.118739 -2.5599 0.348664 0.513211 -0.011014 -0.049618 -0.004397 
0.181647 0.513833 1.604888 10.112784 -49.367256 4.305804 1.775858 -0.088606 -0.021674 -1.588606 -0.142586 1.098357 -11.728647 -2.691792 2.197007 1.005734 0.378494 0.113878 0.044779 -0.09702 -0.016418 -0.871948 -1.790379 -9.380189 11.2982 -30.482195 -57.984402 8.772147 -40.657715 0.091763 0.049897 0.139772 -0.055896 -1.028971 1.601103 8.211791 13.436428 28.149796 54.699886 8.760782 52.649456 -0.309857 0.024255 -0.190668 -0.006967 -24.889755 -6.848268 3.389004 25.850914 -3.80283 3.738943 -3.363973 1.05056 0.113687 -0.162618 0.259186 0.058532 -49.924065 -3.309317 1.185723 49.405937 -0.579095 -1.2066 -2.476602 0.251689 0.520592 -0.002064 -0.086076 -0.021544 
0.172358 0.515226 1.630166 12.734193 -61.119526 10.354714 1.660049 -0.038784 0.095218 -1.627041 0.02335 1.162551 -10.075966 -1.278841 2.620016 1.143978 0.426067 0.053895 0.044691 -0.12412 -0.007585 -0.729224 -1.782817 -9.272429 13.271162 -28.249655 -58.931133 9.083056 -45.161392 -0.146164 0.053737 0.150867 -0.057239 -0.967061 1.534655 8.059689 12.327701 25.611334 54.49332 6.963797 53.778732 0.14597 0.020532 -0.194772 -0.004366 -21.096674 -5.949202 3.057855 25.729465 -3.933909 3.724657 -3.41301 0.99853 0.017648 -0.180089 0.277191 0.065558 -48.365639 -2.49391 0.510486 44.503147 -0.775105 -0.596495 -1.928857 0.203743 0.536187 0.017147 -0.111035 -0.02923 
0.153216 0.51655 1.650353 22.525478 -71.768852 22.325462 1.630857 0.025741 0.167797 -1.668889 0.197354 1.197282 -8.52679 -0.079394 3.203812 1.277968 0.455064 -0.012496 0.046585 -0.129775 0.009289 -0.553573 -1.611884 -8.898275 14.754935 -26.056831 -59.760605 9.672541 -49.429924 0.212611 0.052922 0.148515 -0.050432 -0.945374 1.286652 8.060141 11.169674 23.884756 54.383923 5.813241 54.959221 0.311779 0.031479 -0.198586 -0.001584 -18.362783 -5.638961 3.290948 27.114109 -4.173206 3.699896 -3.359479 0.958983 -0.016574 -0.2082 0.297626 0.079676 -47.761459 -2.172555 0.403921 42.462326 -0.824576 -0.281697 -1.409655 0.167236 0.530209 0.029461 -0.117983 -0.029558 
0.129751 0.517556 1.659353 35.747833 -77.157654 36.267223 1.647818 0.042786 0.220528 -1.702611 0.307757 1.187498 -6.906845 0.667823 3.625097 1.428451 0.512071 -0.056861 0.045808 -0.153655 0.021921 -0.428934 -1.489937 -8.722777 14.846513 -24.844553 -61.14201 9.452972 -51.899559 0.88225 0.053603 0.147018 -0.050279 -0.934421 0.946477 8.209268 9.88181 22.901699 54.695488 5.267755 55.569412 0.259451 0.005546 -0.186259 -0.003517 -16.027676 -6.030904 3.824784 28.424404 -4.485743 3.63452 -3.208108 0.936857 -0.043302 -0.242695 0.292223 0.090071 -46.289783 -1.960799 0.631571 40.753784 -0.931754 -0.080602 -1.070725 0.16507 0.546209 0.042048 -0.129417 -0.034978 
0.109547 0.517117 1.663955 51.920872 -79.992012 52.771519 1.662353 0.04349 0.259224 -1.71892 0.383033 1.163619 -5.601276 1.04897 3.869438 1.546801 0.563253 -0.102293 0.044285 -0.170422 0.031956 -0.336771 -1.349194 -8.725563 14.258718 -24.469263 -61.999466 9.174113 -52.787491 1.582618 0.052326 0.142069 -0.047884 -0.91027 0.671654 8.37781 9.018353 22.440434 54.961678 4.962615 55.776001 0.204769 -0.019831 -0.173242 -0.004676 -14.824182 -6.490975 4.092094 30.110815 -4.782829 3.609674 -3.084958 0.914545 -0.054261 -0.271353 0.277195 0.095231 -45.146255 -1.982954 0.700999 39.414932 -1.177614 0.088665 -0.860106 0.15046 0.55958 0.04968 -0.13608 -0.038213 
